# xmcd CD database file
#
# Track frame offsets:
#	150
#	27077
#	40809
#	54638
#	77660
#	99889
#	114564
#	123724
#	136935
#	142597
#	150126
#	163648
#	176177
#
# Disc length: 2502 seconds
#
# Revision: 0
# Processed by: cddbd v1.5.2PL0 Copyright (c) Steve Scherf et al.
# Submitted via: CDex 1.70beta2
#
DISCID=9a09c40d
DTITLE=Wigwam - Hard N' Horny
DYEAR=1969
DGENRE=Jazz
TTITLE0=633 Jesu Fåglar - Pidän Sinusta
TTITLE1=En aio paeta 
TTITLE2=Neron muistolle, hyvää yötä 
TTITLE3=Guardian Angel, The Future 
TTITLE4=No Pens, ei karsinoita 
TTITLE5=Henry´s...Mountain Range Or Thereabouts 
TTITLE6=Henry´s...Geographical And Astronomical Mistakes
TTITLE7=Henry´s...Highway Code 
TTITLE8=Henry´s...Ghastly And Diabolical Mistakes 
TTITLE9=Henry´s...Canceled Holiday Plans 
TTITLE10=Henry´s...Concentration Camp Brochure 
TTITLE11=Henry´s...Ears, Eyes, Girlfriend And Feet - ...Hard And Horny All-Niter 
TTITLE12=Henry´s...Milk Round In The Morning 
EXTD=YEAR: 1969
EXTT0=
EXTT1=
EXTT2=
EXTT3=
EXTT4=
EXTT5=
EXTT6=
EXTT7=
EXTT8=
EXTT9=
EXTT10=
EXTT11=
EXTT12=
PLAYORDER=
